# Alias OBJ Model File
# Exported from SketchUp, (c) 2000-2012 Trimble Navigation Limited
# File units = inches

mtllib pillar2.mtl

g Mesh1 Model

usemtl Stone_Marble
v -0.111416 3.2685e-13 1.88635
vt 0.0262479 6.80937e-15
vn -0.709525 0 0.70468
v -0.111416 37.8194 1.88635
vt 0.0262479 0.787904
v -2.79537 37.8194 -0.816053
vt -0.053101 0.787904
v -2.79537 3.2685e-13 -0.816053
vt -0.053101 6.80937e-15
f 1/1/1 2/2/1 3/3/1 4/4/1 

v 3.57091 3.2685e-13 0.913181
vt 0.0670636 6.80937e-15
vn 0.255509 0 0.966807
v 3.57091 37.8194 0.913181
vt 0.0670636 0.787904
vt -0.0122853 0.787904
vt -0.0122853 6.80937e-15
f 5/5/2 6/6/2 2/7/2 1/8/2 

v 4.56928 3.2685e-13 -2.76239
vt 0.0804902 6.80937e-15
vn 0.965034 0 0.262126
v 4.56928 37.8194 -2.76239
vt 0.0804902 0.787904
vt 0.00114122 0.787904
vt 0.00114122 6.80937e-15
f 7/9/3 8/10/3 6/11/3 5/12/3 

v 1.88533 3.2685e-13 -5.46479
vt 0.053101 6.80937e-15
vn 0.709525 0 -0.70468
v 1.88533 37.8194 -5.46479
vt 0.053101 0.787904
vt -0.0262479 0.787904
vt -0.0262479 6.80937e-15
f 9/13/4 10/14/4 8/15/4 7/16/4 

v -1.79699 3.2685e-13 -4.49162
vt 0.0122853 6.80937e-15
vn -0.255509 0 -0.966807
v -1.79699 37.8194 -4.49162
vt 0.0122853 0.787904
vt -0.0670636 0.787904
vt -0.0670636 6.80937e-15
f 11/17/5 12/18/5 10/19/5 9/20/5 

vt -0.00114122 6.80937e-15
vn -0.965034 0 -0.262126
vt -0.00114122 0.787904
vt -0.0804902 0.787904
vt -0.0804902 6.80937e-15
f 4/21/6 3/22/6 12/23/6 11/24/6 

v -2.05856 38.4794 -1.01078
vt -0.00907979 0.533687
vn -0.632924 0.755929 0.16727
v -1.25995 38.4794 -3.95089
vt -0.0725516 0.533687
vn -0.461322 0.755929 -0.464493
vt -0.0804902 0.514241
vt -0.00114122 0.514241
f 13/25/7 14/26/8 12/27/8 3/28/7 

vt -0.0262491 0.0823103
vn 0 1 -0
vt -0.0428867 0.0210578
v 0.0883514 38.4794 1.1509
vt 0.00184065 -0.023977
v 3.03387 38.4794 0.372451
vt 0.0632056 -0.00775939
v 3.83248 38.4794 -2.56767
vt 0.0798433 0.053493
v 1.68556 38.4794 -4.72934
vt 0.0351159 0.0985279
f 14/29/9 13/30/9 15/31/9 16/32/9 17/33/9 18/34/9 

vt 0.0183093 0.555831
vn -0.171602 0.755929 0.631763
vt -0.0451625 0.555831
vt -0.053101 0.536385
vt 0.0262479 0.536385
f 15/35/10 13/36/7 3/37/7 2/38/10 

vt 0.0591251 0.550131
vn 0.461322 0.755929 0.464493
vt -0.00434677 0.550131
vt -0.0122853 0.530685
vt 0.0670636 0.530685
f 16/39/11 15/40/10 2/41/10 6/42/11 

vt 0.0725516 0.522286
vn 0.632924 0.755929 -0.16727
vt 0.00907979 0.522286
vt 0.00114122 0.502841
vt 0.0804902 0.502841
f 17/43/12 16/44/11 6/45/11 8/46/12 

vt 0.0451625 0.500142
vn 0.171602 0.755929 -0.631763
vt -0.0183093 0.500142
vt -0.0262479 0.480696
vt 0.053101 0.480696
f 18/47/13 17/48/12 8/49/12 10/50/13 

vt 0.00434677 0.505842
vt -0.0591251 0.505842
vt -0.0670636 0.486397
vt 0.0122853 0.486397
f 14/51/8 18/52/13 10/53/13 12/54/8 

usemtl FrontColor
vt 2.79537 0.816053
vn 0 -1 -0
vt 1.79699 4.49162
vt -1.88533 5.46479
vt -4.56928 2.76239
vt -3.57091 -0.913181
vt 0.111416 -1.88635
f 4/55/14 11/56/14 9/57/14 7/58/14 5/59/14 1/60/14 

